<?xml version="1.0" encoding="utf-8"?>
<!-- Generator: Adobe Illustrator 16.0.0, SVG Export Plug-In . SVG Version: 6.00 Build 0)  -->
<!DOCTYPE svg PUBLIC "-//W3C//DTD SVG 1.1//EN" "http://www.w3.org/Graphics/SVG/1.1/DTD/svg11.dtd">
<svg version="1.1" id="Layer_1" xmlns="http://www.w3.org/2000/svg" xmlns:xlink="http://www.w3.org/1999/xlink" x="0px" y="0px"
	 width="128px" height="128px" viewBox="0 0 128 128" enable-background="new 0 0 128 128" xml:space="preserve">
<g>
	<g>
		<g>
			<path fill="#282D33" d="M66.216,128c-30.618-0.246-47.152-26.807-47.181-51.674c-0.006-7.198,2.189-15.4,6.522-24.378l3.61,1.742
				c-4.068,8.43-6.129,16.044-6.124,22.632c0.026,22.94,15.165,47.444,43.171,47.669c28.002-0.226,43.13-24.729,43.13-47.667
				c0-27.623-35.681-63.604-43.147-70.831C63.289,8.3,56.11,15.444,48.481,24.692l-3.093-2.55
				C55.441,9.954,64.748,1.339,64.841,1.254L66.2,0l1.358,1.254c1.87,1.726,45.795,42.637,45.795,75.07
				C113.354,101.191,96.833,127.753,66.216,128z"/>
		</g>
		<g>
			<path fill="#282D33" d="M66.22,116.515l-0.041-4.009c22.917-0.239,31.458-22.32,31.458-36.182h4.009
				C101.646,91.721,92.027,116.244,66.22,116.515z"/>
		</g>
	</g>
	<g>
		<path fill="#282D33" d="M75.489,100.212H56.896V84.957H41.343V66.638h15.554V51.382h18.593v15.256h15.555v18.319H75.489V100.212z
			 M60.905,96.204H71.48V80.948h15.555V70.646H71.48V55.391H60.905v15.256H45.352v10.302h15.554V96.204z"/>
	</g>
	<g>
		<path fill="#282D33" d="M33.267,55.831H33.25C21.18,55.734,14.656,45.31,14.646,35.552c-0.01-12.484,16.555-27.905,17.26-28.555
			l1.359-1.254l1.359,1.254c0.705,0.65,17.26,16.071,17.26,28.553c0,9.759-6.52,20.184-18.603,20.281H33.267z M33.266,11.266
			c-3.862,3.868-14.618,15.435-14.611,24.283c0.008,7.828,5.132,16.188,14.612,16.273c9.49-0.085,14.609-8.445,14.609-16.272
			C47.876,26.689,37.128,15.132,33.266,11.266z"/>
	</g>
</g>
</svg>
