<?xml version="1.0" encoding="utf-8"?>
<!-- Generator: Adobe Illustrator 16.0.0, SVG Export Plug-In . SVG Version: 6.00 Build 0)  -->
<!DOCTYPE svg PUBLIC "-//W3C//DTD SVG 1.1//EN" "http://www.w3.org/Graphics/SVG/1.1/DTD/svg11.dtd">
<svg version="1.1" id="Layer_1" xmlns="http://www.w3.org/2000/svg" xmlns:xlink="http://www.w3.org/1999/xlink" x="0px" y="0px"
	 width="128px" height="128px" viewBox="0 0 128 128" enable-background="new 0 0 128 128" xml:space="preserve">
<g>
	<g>
		<g>
			<path fill="#282D33" d="M32.179,128h-4.592c-5.444,0-9.873-4.392-9.873-9.79v-6.549h4v6.549c0,3.192,2.635,5.79,5.873,5.79h4.592
				c3.238,0,5.873-2.598,5.873-5.79l4-0.056v0.056C42.051,123.608,37.623,128,32.179,128z"/>
		</g>
		<g>
			<path fill="#282D33" d="M100.414,128H95.82c-5.445,0-9.873-4.392-9.873-9.79v-6.981h4v6.981c0,3.192,2.635,5.79,5.873,5.79h4.594
				c3.238,0,5.873-2.598,5.873-5.79h4l-0.033,0.81C109.836,124.041,105.582,128,100.414,128z"/>
		</g>
	</g>
	<g>
		<path fill="#282D33" d="M115.207,91.75h-4V9.791c0-3.193-2.635-5.791-5.873-5.791H22.667c-3.238,0-5.873,2.598-5.873,5.791v81.095
			h-4V9.791C12.793,4.392,17.223,0,22.667,0h82.667c5.443,0,9.873,4.392,9.873,9.791V91.75z"/>
	</g>
	<g>
		<polygon fill="#282D33" points="115.207,113.068 12.792,113.068 12.792,103.438 16.792,103.438 16.792,109.068 111.207,109.068 
			111.207,103.005 115.207,103.005 		"/>
	</g>
	<g>
		<path fill="#282D33" d="M115.207,78.011H12.792V26.618h102.415V78.011z M16.792,74.011h94.415V30.618H16.792V74.011z"/>
	</g>
	<g>
		<rect x="23.979" y="16.119" fill="#282D33" width="80.043" height="4"/>
	</g>
	<g>
		<path fill="#282D33" d="M117.176,103.979H10.825v-14h106.351V103.979z M14.825,99.979h98.351v-6H14.825V99.979z"/>
	</g>
	<g>
		<rect x="62" y="27.969" fill="#282D33" width="4" height="48.042"/>
	</g>
	<g>
		<g>
			<g>
				<polygon fill="#282D33" points="126.033,55.885 122.033,55.885 122.033,40.356 112.225,40.356 112.225,36.356 126.033,36.356 
									"/>
			</g>
		</g>
		<g>
			<g>
				<polygon fill="#282D33" points="5.967,55.885 1.967,55.885 1.967,36.356 15.777,36.356 15.777,40.356 5.967,40.356 				"/>
			</g>
		</g>
	</g>
	<g>
		<g>
			<rect x="52.151" y="42.901" fill="#282D33" width="4" height="25.968"/>
		</g>
		<g>
			
				<rect x="42.966" y="53.35" transform="matrix(0.7033 0.7109 -0.7109 0.7033 60.4525 -12.3034)" fill="#282D33" width="4" height="25.844"/>
		</g>
	</g>
	<g>
		<g>
			<rect x="72.271" y="42.901" fill="#282D33" width="4" height="25.968"/>
		</g>
		<g>
			
				<rect x="70.535" y="64.272" transform="matrix(0.7108 0.7034 -0.7034 0.7108 70.747 -39.5368)" fill="#282D33" width="25.845" height="4"/>
		</g>
	</g>
	<g>
		<rect x="20.639" y="81.961" fill="#282D33" width="9.622" height="4"/>
	</g>
	<g>
		<rect x="96.309" y="81.961" fill="#282D33" width="9.623" height="4"/>
	</g>
</g>
</svg>
