<?xml version="1.0" encoding="iso-8859-1"?>
<!-- Generator: Adobe Illustrator 23.0.5, SVG Export Plug-In . SVG Version: 6.00 Build 0)  -->
<svg version="1.1" xmlns="http://www.w3.org/2000/svg" xmlns:xlink="http://www.w3.org/1999/xlink" x="0px" y="0px"
	 viewBox="0 0 492 492" style="enable-background:new 0 0 492 492;" xml:space="preserve">
<g id="Master_Layer_2">
</g>
<g id="Layer_1">
	<g>
		<g>
			<g>
				<g>
					<g>
						<path style="fill-rule:evenodd;clip-rule:evenodd;fill:#212121;" d="M428.182,431.06H64.342c-3.192,0-5.76-2.568-5.76-5.76
							V174.716c0-3.192,2.568-5.76,5.76-5.76h363.839c3.192,0,5.76,2.568,5.76,5.76V425.3
							C433.942,428.491,431.35,431.06,428.182,431.06L428.182,431.06z M70.103,419.54h352.319V180.476H70.103V419.54z"/>
					</g>
					<g>
						<path style="fill-rule:evenodd;clip-rule:evenodd;fill:#212121;" d="M428.182,180.476H64.342c-2.088,0-4.008-1.128-5.04-2.952
							c-1.008-1.824-0.96-4.056,0.12-5.832l65.76-106.536c1.056-1.704,2.904-2.736,4.896-2.736h228.624
							c1.944,0,3.768,0.984,4.824,2.616l69.432,106.536c1.152,1.776,1.248,4.032,0.24,5.88
							C432.238,179.324,430.294,180.476,428.182,180.476L428.182,180.476z M74.686,168.956H417.55L355.63,73.94l-222.288,0
							L74.686,168.956z"/>
					</g>
					<g>
						<path style="fill-rule:evenodd;clip-rule:evenodd;fill:#212121;" d="M306.91,127.196H185.614c-3.192,0-5.76-2.568-5.76-5.76
							s2.568-5.76,5.76-5.76h121.272c3.192,0,5.76,2.568,5.76,5.76S310.078,127.196,306.91,127.196z"/>
					</g>
				</g>
				<g>
					<g>
						<path style="fill-rule:evenodd;clip-rule:evenodd;fill:#212121;" d="M324.79,335.012c-0.36,0-0.744-0.024-1.104-0.12
							c-1.488-0.288-2.808-1.176-3.672-2.448l-23.088-34.368c-1.776-2.64-1.08-6.216,1.56-7.992c2.64-1.776,6.216-1.08,7.992,1.56
							l19.872,29.592l12.072-8.112l-44.136-65.736c-1.776-2.64-1.08-6.216,1.56-7.992c2.64-1.776,6.216-1.08,7.992,1.56
							l47.352,70.512c1.776,2.64,1.08,6.216-1.56,7.992l-21.648,14.544C327.046,334.675,325.918,335.012,324.79,335.012z"/>
					</g>
					<g>
						<g>
							<path style="fill-rule:evenodd;clip-rule:evenodd;fill:#212121;" d="M301.702,371.348h-110.88c-3.192,0-5.76-2.568-5.76-5.76
								V254.012c0-13.968,11.352-25.32,25.32-25.32h9.48c1.536,0,3,0.624,4.08,1.704s1.68,2.568,1.68,4.104v0.192
								c0,11.352,9.24,20.616,20.616,20.616c11.376,0,20.616-9.24,20.616-20.616V234.5c-0.024-1.536,0.576-3.024,1.68-4.104
								s2.544-1.704,4.08-1.704h9.48c13.968,0,25.32,11.352,25.32,25.32v111.576C307.462,368.755,304.87,371.348,301.702,371.348
								L301.702,371.348z M196.582,359.828h99.36V254.012c0-7.608-6.192-13.8-13.8-13.8h-4.2
								c-2.616,15.096-15.816,26.616-31.656,26.616c-15.84,0-29.04-11.52-31.656-26.616h-4.2c-7.608,0-13.8,6.192-13.8,13.8
								l0,105.816H196.582z"/>
						</g>
						<g>
							<path style="fill-rule:evenodd;clip-rule:evenodd;fill:#212121;" d="M167.734,335.012c-1.128,0-2.256-0.336-3.216-0.984
								l-21.648-14.544c-2.64-1.776-3.336-5.352-1.56-7.992l47.352-70.488c1.776-2.64,5.352-3.336,7.992-1.56
								c2.64,1.776,3.336,5.352,1.56,7.992l-44.136,65.736l12.072,8.112l19.872-29.592c1.776-2.64,5.352-3.336,7.992-1.56
								c2.64,1.776,3.336,5.352,1.56,7.992l-23.088,34.368c-0.84,1.272-2.184,2.136-3.672,2.448
								C168.479,334.988,168.119,335.012,167.734,335.012z"/>
						</g>
					</g>
				</g>
			</g>
		</g>
	</g>
</g>
</svg>
