<svg xmlns="http://www.w3.org/2000/svg" width="47.997" height="48.001" viewBox="0 0 47.997 48.001">
  <g>
    <path d="M47.269,4.852H43.148V.727A.727.727,0,0,0,42.421,0h-15.2A3.945,3.945,0,0,0,24,1.682,3.945,3.945,0,0,0,20.772,0H5.575a.726.726,0,0,0-.727.727V4.852H.727A.726.726,0,0,0,0,5.579V47.272A.729.729,0,0,0,.727,48H47.269A.728.728,0,0,0,48,47.272V5.579A.729.729,0,0,0,47.269,4.852Zm-22.544-.9a2.5,2.5,0,0,1,2.5-2.5h14.47V41.38H27.223a3.936,3.936,0,0,0-2.5.893V36.326a13.315,13.315,0,0,0,0-26.592ZM23.271,46.546H1.454V6.306H4.848v35.8a.728.728,0,0,0,.727.727h15.2a2.5,2.5,0,0,1,2.5,2.5Zm0-4.274a3.937,3.937,0,0,0-2.5-.893H6.3V1.453h14.47a2.5,2.5,0,0,1,2.5,2.5V9.732a13.315,13.315,0,0,0,0,26.592ZM12.12,23.03A11.878,11.878,0,1,1,24,34.907,11.891,11.891,0,0,1,12.12,23.03ZM46.542,46.546H24.725V45.333a2.5,2.5,0,0,1,2.5-2.5h15.2a.728.728,0,0,0,.727-.727V6.305h3.394Z" fill="#1a171b"/>
    <path d="M21.278,15.175a.728.728,0,0,0-1.164.582V30.3a.728.728,0,0,0,.4.65.734.734,0,0,0,.763-.069l9.7-7.273a.726.726,0,0,0,0-1.162Zm.29,13.672V17.212l7.757,5.818Z" fill="#1a171b"/>
  </g>
</svg>
