<?xml version="1.0" encoding="UTF-8" standalone="no"?><!DOCTYPE svg PUBLIC "-//W3C//DTD SVG 1.1//EN" "http://www.w3.org/Graphics/SVG/1.1/DTD/svg11.dtd"><svg width="100%" height="100%" viewBox="0 0 64 64" version="1.1" xmlns="http://www.w3.org/2000/svg" xmlns:xlink="http://www.w3.org/1999/xlink" xml:space="preserve" xmlns:serif="http://www.serif.com/" style="fill-rule:evenodd;clip-rule:evenodd;stroke-linecap:round;stroke-linejoin:round;stroke-miterlimit:2;"><rect id="_12---Fruit-Salad" serif:id="12 - Fruit Salad" x="0" y="0" width="64" height="64" style="fill:none;"/><path d="M54.448,33c0.389,0 0.759,0.17 1.013,0.464c0.254,0.295 0.367,0.686 0.309,1.07c-0.175,1.167 -0.435,2.897 -0.726,4.839c-1.175,7.833 -7.903,13.627 -15.823,13.627c-4.636,0 -9.806,0 -14.442,0c-7.92,0 -14.648,-5.794 -15.823,-13.627c-0.291,-1.942 -0.551,-3.672 -0.726,-4.839c-0.058,-0.384 0.055,-0.775 0.309,-1.07c0.254,-0.294 0.624,-0.464 1.013,-0.464c7.24,0 37.656,0 44.896,0Z" style="fill:none;stroke:#444f58;stroke-width:2px;"/><path d="M47.5,45.284c-2.628,2.155 -5.982,3.432 -9.6,3.432" style="fill:none;stroke:#444f58;stroke-width:2px;"/><path d="M43,52.503l0,1.37c0,0.829 -0.33,1.624 -0.916,2.211c-0.587,0.587 -1.382,0.916 -2.212,0.916c-4.184,0 -11.56,0 -15.744,0c-0.83,0 -1.625,-0.329 -2.212,-0.916c-0.586,-0.587 -0.916,-1.382 -0.916,-2.211c0,-0.766 0,-1.37 0,-1.37" style="fill:none;stroke:#444f58;stroke-width:2px;"/><path d="M28.529,33c-0.574,-1.63 -0.73,-3.431 -0.365,-5.247c0.473,-2.347 1.738,-4.333 3.461,-5.736c3.001,-2.459 5.058,-5.881 5.824,-9.684c0.094,-0.42 0.177,-0.834 0.257,-1.232c0.421,-2.091 2.457,-3.445 4.548,-3.024c0,0 0,0 0,0c2.091,0.42 3.445,2.457 3.024,4.548c-0.08,0.398 -0.163,0.812 -0.248,1.234c-0.766,3.805 -0.191,7.758 1.626,11.188c1.054,1.956 1.452,4.278 0.98,6.624c-0.092,0.457 -0.214,0.901 -0.364,1.329" style="fill:none;stroke:#444f58;stroke-width:2px;"/><path d="M18.141,33c-0.068,-0.468 -0.103,-0.947 -0.103,-1.434c0,-2.393 0.849,-4.59 2.261,-6.306c2.457,-3.003 3.799,-6.763 3.799,-10.642c0.009,-0.431 0.009,-0.853 0.009,-1.259c0,-2.133 1.729,-3.862 3.862,-3.862c0,0 0,0 0,0c2.133,0 3.862,1.729 3.862,3.862c0,0.406 0,0.829 0,1.259c0,0.448 0.018,0.895 0.054,1.339" style="fill:none;stroke:#444f58;stroke-width:2px;"/><circle cx="38" cy="28" r="4" style="fill:none;stroke:#444f58;stroke-width:2px;"/><path d="M53,33c0,0 1.521,-5.869 -1.649,-9.511" style="fill:none;stroke:#444f58;stroke-width:2px;"/><path d="M13.002,33c-1.257,-1.672 -2.002,-3.75 -2.002,-6c0,-5.114 3.848,-9.337 8.804,-9.929" style="fill:none;stroke:#444f58;stroke-width:2px;"/><path d="M11.635,23.489l2.365,0.511" style="fill:none;stroke:#444f58;stroke-width:2px;"/><path d="M12,32l2,-1" style="fill:none;stroke:#444f58;stroke-width:2px;"/><path d="M19,18l0,1" style="fill:none;stroke:#444f58;stroke-width:2px;"/></svg>