<?xml version="1.0" encoding="utf-8"?>
<!-- Generator: Adobe Illustrator 16.0.0, SVG Export Plug-In . SVG Version: 6.00 Build 0)  -->
<!DOCTYPE svg PUBLIC "-//W3C//DTD SVG 1.1//EN" "http://www.w3.org/Graphics/SVG/1.1/DTD/svg11.dtd">
<svg version="1.1" id="Layer_1" xmlns="http://www.w3.org/2000/svg" xmlns:xlink="http://www.w3.org/1999/xlink" x="0px" y="0px"
	 width="128px" height="128px" viewBox="0 0 128 128" enable-background="new 0 0 128 128" xml:space="preserve">
<g>
	<g>
		<g>
			<path fill="#282D33" d="M64.011,59.383c-13.661,0-24.775-11.046-24.775-24.624c0-7.084,3.078-13.831,8.444-18.509l0.109-0.094
				L64.01,0l16.296,16.225c5.396,4.705,8.48,11.454,8.48,18.533C88.786,48.336,77.672,59.383,64.011,59.383z M64.009,5.655
				l-13.71,13.625c-4.48,3.906-7.058,9.552-7.058,15.479c0,11.369,9.317,20.618,20.77,20.618s20.77-9.25,20.77-20.62
				c0-5.921-2.583-11.57-7.088-15.497l-0.511-0.472L64.009,5.655z"/>
		</g>
		<g>
			<path fill="#282D33" d="M64.011,50.019c-8.463,0-15.348-6.847-15.348-15.261h4.005c0,6.206,5.089,11.255,11.343,11.255V50.019z"
				/>
		</g>
	</g>
	<g>
		<g>
			<g>
				<g>
					<path fill="#282D33" d="M29.191,63.087h-4.006V48.034c-0.518-2.826-2.528-5.771-5.313-5.772l-2.561,0.019l-0.157-4.003
						c0.143-0.012,0.255-0.02,0.374-0.02l2.344-0.002c5.1,0.002,8.534,4.671,9.293,9.281l0.026,0.325V63.087z"/>
				</g>
				<g>
					<path fill="#282D33" d="M53.921,95.823h-4.006v-9.615L49.12,73.941L32.89,57.822c-0.428,0.404-0.796,0.752-0.796,0.752
						c-1.118,1.049-1.839,2.713-1.886,4.349c-0.029,1.032,0.223,1.946,0.718,2.62l10.393,10.324l-2.819,2.845l-0.004-0.003
						L28.311,68.641c-0.125-0.132-0.244-0.267-0.358-0.405L22.1,62.422l-6.317-6.629V39.935c-0.516-2.825-2.526-5.768-5.314-5.77
						l-0.616,0l0.27,24.876l20.577,34.301l-3.435,2.062L6.127,60.171L5.805,30.315l1.885-0.13c0.183-0.016,0.307-0.024,0.435-0.024
						l2.343-0.002c5.104,0.002,8.539,4.67,9.295,9.279l0.026,0.324V54.19l5.173,5.429l1.446,1.436
						c0.42-2.072,1.462-4.01,2.941-5.398c2.198-2.075,2.253-2.118,2.334-2.183l1.395-1.111l19.941,19.806l0.902,13.976V95.823z"/>
				</g>
				<g>
					<polygon fill="#282D33" points="61.381,128 57.375,128 57.375,97.388 24.896,97.388 24.896,117.466 20.89,117.466 
						20.89,93.382 61.381,93.382 					"/>
				</g>
			</g>
			<g>
				<g>
					<path fill="#282D33" d="M102.835,63.087h-4.006l0.026-15.55c0.757-4.61,4.191-9.279,9.292-9.282l2.349,0.002
						c0.117,0,0.229,0.007,0.341,0.017l-0.127,4.006l-0.212-0.014l-2.352-0.004c-2.785,0.001-4.795,2.946-5.312,5.772V63.087z"/>
				</g>
				<g>
					<path fill="#282D33" d="M78.106,95.823h-4.006l0.004-9.809l0.897-13.846l19.941-19.806l1.394,1.107
						c0.119,0.095,0.168,0.134,2.324,2.331c1.429,1.34,2.457,3.262,2.877,5.325l1.558-1.547l5.137-5.39l0.026-14.751
						c0.755-4.609,4.188-9.277,9.291-9.279l2.35,0.002c0.13,0,0.251,0.008,0.374,0.019l1.848,0.162l0.074,1.862l-0.301,27.966
						l-21.139,35.233l-3.435-2.062L117.9,59.042l0.268-24.875l-0.619-0.001c-2.785,0.001-4.795,2.945-5.311,5.769v15.859
						l-6.282,6.589l-5.852,5.814c-0.132,0.169-0.272,0.331-0.421,0.488L89.448,78.801l-2.946-2.707l0.2-0.227L97.097,65.54
						c0.436-0.642,0.672-1.532,0.644-2.533c-0.047-1.634-0.768-3.298-1.88-4.342c-0.025-0.024-0.372-0.377-0.78-0.792L78.901,73.94
						l-0.795,12.268V95.823z"/>
				</g>
				<g>
					<polygon fill="#282D33" points="70.645,128 66.64,128 66.64,93.382 107.132,93.382 107.132,117.466 103.126,117.466 
						103.126,97.388 70.645,97.388 					"/>
				</g>
			</g>
		</g>
	</g>
</g>
</svg>
