<?xml version="1.0" encoding="utf-8"?>
<!-- Generator: Adobe Illustrator 16.0.0, SVG Export Plug-In . SVG Version: 6.00 Build 0)  -->
<!DOCTYPE svg PUBLIC "-//W3C//DTD SVG 1.1//EN" "http://www.w3.org/Graphics/SVG/1.1/DTD/svg11.dtd">
<svg version="1.1" id="Layer_1" xmlns="http://www.w3.org/2000/svg" xmlns:xlink="http://www.w3.org/1999/xlink" x="0px" y="0px"
	 width="128px" height="128px" viewBox="0 0 128 128" enable-background="new 0 0 128 128" xml:space="preserve">
<g>
	<g>
		<polygon fill="#282D33" points="127.592,104.195 118.195,104.195 118.195,100.195 123.592,100.195 123.592,18.509 4.408,18.509 
			4.408,100.195 80.051,100.195 80.051,104.195 0.408,104.195 0.408,14.509 127.592,14.509 		"/>
	</g>
	<g>
		<rect x="13.663" y="82.302" fill="#282D33" width="50.401" height="3.999"/>
	</g>
	<g>
		<rect x="13.663" y="60.813" fill="#282D33" width="67.006" height="4"/>
	</g>
	<g>
		<rect x="13.663" y="71.559" fill="#282D33" width="67.006" height="4"/>
	</g>
	<g>
		<rect x="13.663" y="49.417" fill="#282D33" width="67.006" height="4"/>
	</g>
	<g>
		<path fill="#282D33" d="M127.592,18.509H0.408V0h127.184V18.509z M4.408,14.509h119.184V4H4.408V14.509z"/>
	</g>
	<g>
		<rect x="8.036" y="7.151" fill="#282D33" width="4.674" height="3.999"/>
	</g>
	<g>
		<rect x="16.129" y="7.151" fill="#282D33" width="4.679" height="3.999"/>
	</g>
	<g>
		<rect x="24.224" y="7.151" fill="#282D33" width="4.676" height="3.999"/>
	</g>
	<g>
		<g>
			<path fill="#282D33" d="M56.933,40.658H14.165V27.297h42.768V40.658z M18.165,36.658h34.768v-5.361H18.165V36.658z"/>
		</g>
	</g>
	<g>
		<g>
			<polygon fill="#282D33" points="106.592,48.661 106.589,46.168 99.268,33.653 91.942,46.167 91.942,48.658 87.943,48.658 
				87.943,45.083 99.268,25.732 110.587,45.082 110.592,48.656 			"/>
		</g>
		<g>
			<polygon fill="#282D33" points="91.938,101.712 87.939,101.712 87.943,45.525 110.592,45.521 110.592,101.709 106.592,101.709 
				106.592,49.522 91.942,49.524 			"/>
		</g>
		<g>
			<path fill="#282D33" d="M106.541,128H91.982c-2.265,0-4.042-1.56-4.047-3.552v-4.47h3.999V124c0.015,0,0.031,0.001,0.048,0.001
				h14.559c0.021,0,0.042-0.001,0.061-0.002v-4.022h4v4.469C110.602,126.439,108.818,128,106.541,128z"/>
		</g>
		<g>
			<path fill="#282D33" d="M110.592,114.955H87.939v-14.754h22.652V114.955z M91.938,110.955h14.653v-6.754H91.938V110.955z"/>
		</g>
	</g>
</g>
</svg>
