<svg xmlns="http://www.w3.org/2000/svg" viewBox="0 0 64 64"><defs><style>.cls-1{fill:#272835;}</style></defs><title>13-Love</title><g id="_13-Love" data-name="13-Love"><path class="cls-1" d="M44,2H20A20,20,0,0,0,0,22v8A20,20,0,0,0,20,50h7V61a1,1,0,0,0,1.71.71L40.41,50H44A20,20,0,0,0,64,30V22A20,20,0,0,0,44,2ZM62,30A18,18,0,0,1,44,48H40a1,1,0,0,0-.71.29L29,58.59V49a1,1,0,0,0-1-1H20A18,18,0,0,1,2,30V22A18,18,0,0,1,20,4H44A18,18,0,0,1,62,22Z"/><path class="cls-1" d="M40,13c-3.92,0-6.67,3.14-8,5.07C30.67,16.14,27.92,13,24,13a9,9,0,0,0-9,9c0,3.85,4.79,8.26,5.29,8.71l11,11a1,1,0,0,0,1.41,0l11-11C44.21,30.26,49,25.85,49,22A9,9,0,0,0,40,13Zm2.29,16.29L32,39.59,21.67,29.26C20.37,28.09,17,24.51,17,22a7,7,0,0,1,7-7c4.31,0,7.08,5.39,7.11,5.45a1,1,0,0,0,1.79,0c0-.05,2.79-5.45,7.11-5.45a7,7,0,0,1,7,7C47,24.51,43.63,28.09,42.29,29.29Z"/><rect class="cls-1" x="31" y="26" width="2" height="2"/><rect class="cls-1" x="35" y="26" width="2" height="2"/><rect class="cls-1" x="27" y="26" width="2" height="2"/></g></svg>