<svg xmlns="http://www.w3.org/2000/svg" width="35.394" height="48" viewBox="0 0 35.394 48">
  <g>
    <path d="M21.091,3.634H14.3a.728.728,0,1,0,0,1.456h6.787a.728.728,0,1,0,0-1.456Z" fill="#1a171b"/>
    <path d="M9.939,44.363h1.455a.728.728,0,0,0,0-1.456H9.939a.728.728,0,1,0,0,1.456Z" fill="#1a171b"/>
    <path d="M15.978,44.363h3.438a.728.728,0,1,0,0-1.456H15.978a.728.728,0,1,0,0,1.456Z" fill="#1a171b"/>
    <path d="M24,44.363h1.455a.728.728,0,0,0,0-1.456H24a.728.728,0,0,0,0,1.456Z" fill="#1a171b"/>
    <path d="M31.03,0H4.364A4.368,4.368,0,0,0,0,4.363V43.635A4.37,4.37,0,0,0,4.364,48H31.03a4.37,4.37,0,0,0,4.364-4.365V4.363A4.368,4.368,0,0,0,31.03,0Zm2.909,43.634a2.913,2.913,0,0,1-2.909,2.91H4.364a2.913,2.913,0,0,1-2.909-2.91V40.726H33.939v2.908Zm0-4.363H1.455V8.726H33.939Zm0-32H1.455V4.363a2.913,2.913,0,0,1,2.909-2.91H31.03a2.913,2.913,0,0,1,2.909,2.91V7.271Z" fill="#1a171b"/>
    <path d="M4.606,20.933H5.965L9.226,33.874a.728.728,0,0,0,.7.549H25.462a.728.728,0,0,0,.706-.549l3.26-12.941h1.36a.728.728,0,1,0,0-1.456H28.4l-5.763-5.693a.727.727,0,1,0-1.022,1.033l4.716,4.66H9.062l4.716-4.66a.727.727,0,1,0-1.022-1.033L6.993,19.477H4.606a.728.728,0,1,0,0,1.456Zm18.364,0h4.958L24.9,32.968H21.6Zm-1.463,0L20.132,32.968H15.264L13.888,20.933Zm-9.083,0L13.8,32.968H10.5L7.466,20.933Z" fill="#1a171b"/>
  </g>
</svg>
