<?xml version="1.0" encoding="utf-8"?>
<!-- Generator: Adobe Illustrator 16.0.0, SVG Export Plug-In . SVG Version: 6.00 Build 0)  -->
<!DOCTYPE svg PUBLIC "-//W3C//DTD SVG 1.1//EN" "http://www.w3.org/Graphics/SVG/1.1/DTD/svg11.dtd">
<svg version="1.1" id="Layer_1" xmlns="http://www.w3.org/2000/svg" xmlns:xlink="http://www.w3.org/1999/xlink" x="0px" y="0px"
	 width="128px" height="128px" viewBox="0 0 128 128" enable-background="new 0 0 128 128" xml:space="preserve">
<g>
	<g>
		<path fill="#282D33" d="M55.416,70.932h-4v-2.337c-2.455-0.842-4.714-2.211-6.604-4.014l-0.14-0.148L26.939,43.681v-5.738h4v4.262
			l16.704,19.55c1.758,1.652,3.917,2.829,6.25,3.404l1.522,0.374V70.932z"/>
	</g>
	<g>
		<path fill="#282D33" d="M43.076,40.74h-4V25.401c0-3.945-3.187-7.154-7.104-7.154H30.94v6.6h-4v-6.811l-0.107-0.012l0.107-3.629
			l0.063-0.004l0.008-0.142l4.96-0.001c6.123,0,11.104,5.003,11.104,11.154V40.74z"/>
	</g>
	<g>
		<path fill="#282D33" d="M9.555,38.688H3.019C1.354,38.688,0,37.216,0,35.406v-9.053c0-1.836,1.326-3.275,3.018-3.275h6.536v4H4
			v7.61h5.554V38.688z"/>
	</g>
	<g>
		<polygon fill="#282D33" points="114.1,38.951 111.576,38.951 111.576,34.951 113.027,34.951 120.002,30.921 113.027,26.894 
			111.576,26.894 111.576,22.894 114.1,22.894 128,30.92 		"/>
	</g>
	<g>
		<polygon fill="#282D33" points="113.93,40.123 89.184,40.123 89.184,36.123 109.93,36.123 109.93,25.594 89.184,25.594 
			89.184,21.594 113.93,21.594 		"/>
	</g>
	<g>
		<polygon fill="#282D33" points="39.665,40.123 7.966,40.123 7.966,21.594 39.665,21.594 39.665,25.594 11.966,25.594 
			11.966,36.123 39.665,36.123 		"/>
	</g>
	<g>
		<path fill="#282D33" d="M55.416,70.932h-4v-2.337c-2.455-0.842-4.714-2.211-6.604-4.014l-0.14-0.148L26.939,43.681v-3.404
			l-0.145-1.486l1.421-0.553l0.72,1.853l0.004-0.024V38.1l0.311,0.257l0.04-0.217l1.65,0.293v3.771l16.704,19.55
			c1.758,1.652,3.917,2.829,6.25,3.404l1.522,0.374V70.932z"/>
	</g>
	<g>
		<path fill="#282D33" d="M85.217,70.932h-4v-7.57l0.797-0.6c3.59-2.703,5.648-6.821,5.648-11.298V23.489l-0.299-6.083
			c-0.002-2.298-1.779-4.09-3.963-4.09c-3.947,0-3.957,1.803-3.957,2.489v0.005h-4v-1.496c0-2.203-1.775-3.995-3.957-3.995
			s-3.959,1.792-3.959,3.995h-4v-2.998c0-2.202-1.775-3.993-3.958-3.993c-2.183,0-3.958,1.791-3.958,3.993v3.374h-4
			c0-1.708-1.882-3.771-4.219-3.771c-2.296,0-4.164,1.885-4.164,4.201v25.62h-4V15.12c0-4.522,3.663-8.201,8.164-8.201
			c1.715,0,3.37,0.589,4.738,1.555c1.144-3.008,4.046-5.151,7.438-5.151c3.167,0,5.908,1.868,7.188,4.563
			c1.322-0.985,2.959-1.568,4.729-1.568c2.988,0,5.596,1.663,6.955,4.115c1.291-0.728,2.965-1.118,4.959-1.118
			c4.391,0,7.961,3.586,7.961,7.993l0.299,6.083l0.002,28.07c0,5.405-2.336,10.4-6.445,13.859V70.932z"/>
	</g>
	<g>
		<g>
			<polygon fill="#282D33" points="100.797,124.677 96.797,124.677 96.797,77.516 51.686,77.516 51.686,124.677 47.686,124.677 
				47.686,73.516 100.797,73.516 			"/>
		</g>
		<g>
			<polygon fill="#282D33" points="100.797,124.677 96.797,124.677 96.797,77.516 51.686,77.516 51.686,124.677 47.686,124.677 
				47.686,73.516 100.797,73.516 			"/>
		</g>
	</g>
	<g>
		<rect x="89.457" y="83.9" fill="#282D33" width="4" height="5.373"/>
	</g>
</g>
</svg>
