<?xml version="1.0" encoding="utf-8"?>
<!-- Generator: Adobe Illustrator 16.0.0, SVG Export Plug-In . SVG Version: 6.00 Build 0)  -->
<!DOCTYPE svg PUBLIC "-//W3C//DTD SVG 1.1//EN" "http://www.w3.org/Graphics/SVG/1.1/DTD/svg11.dtd">
<svg version="1.1" id="Layer_1" xmlns="http://www.w3.org/2000/svg" xmlns:xlink="http://www.w3.org/1999/xlink" x="0px" y="0px"
	 width="128px" height="128px" viewBox="0 0 128 128" enable-background="new 0 0 128 128" xml:space="preserve">
<g>
	<g>
		<polygon fill="#282D33" points="79.074,97.617 48.926,97.617 48.926,81.553 52.926,81.553 52.926,93.617 75.074,93.617 
			75.074,81.553 79.074,81.553 		"/>
	</g>
	<g>
		<polygon fill="#282D33" points="128,84.831 123.486,84.831 123.486,80.831 124,80.831 124,11.529 4,11.529 4,80.831 
			86.689,80.831 86.689,84.831 0,84.831 0,7.529 128,7.529 		"/>
	</g>
	<g>
		<polygon fill="#282D33" points="86.689,74.604 10.123,74.604 10.123,17.758 117.878,17.758 117.878,56.861 113.878,56.861 
			113.878,21.758 14.123,21.758 14.123,70.604 86.689,70.604 		"/>
	</g>
	<g>
		<rect x="41.225" y="93.617" fill="#282D33" width="45.55" height="4"/>
	</g>
	<g>
		<g>
			<path fill="#282D33" d="M117.878,120.471H93.949V63.784h23.929V120.471z M97.949,116.471h15.929V67.784H97.949V116.471z"/>
		</g>
		<g>
			<g>
				<rect x="101.714" y="72.466" fill="#282D33" width="4.373" height="4"/>
			</g>
		</g>
	</g>
	<g>
		<g>
			<rect x="51.461" y="38.897" fill="#282D33" width="4" height="18.538"/>
		</g>
		<g>
			<rect x="44.288" y="36.897" fill="#282D33" width="18.346" height="4"/>
		</g>
		<g>
			<polygon fill="#282D33" points="73.104,56.868 65.624,37.175 69.364,35.756 74.972,50.525 80.578,35.756 84.318,37.176 
				76.843,56.868 			"/>
		</g>
	</g>
</g>
</svg>
