<?xml version="1.0" encoding="utf-8"?>
<!-- Generator: Adobe Illustrator 16.0.0, SVG Export Plug-In . SVG Version: 6.00 Build 0)  -->
<!DOCTYPE svg PUBLIC "-//W3C//DTD SVG 1.1//EN" "http://www.w3.org/Graphics/SVG/1.1/DTD/svg11.dtd">
<svg version="1.1" id="Layer_1" xmlns="http://www.w3.org/2000/svg" xmlns:xlink="http://www.w3.org/1999/xlink" x="0px" y="0px"
	 width="128px" height="128px" viewBox="0 0 128 128" enable-background="new 0 0 128 128" xml:space="preserve">
<g>
	<g>
		<g>
			<path fill="#282D33" d="M104.406,62.725c-7.974,0-14.463-6.42-14.465-14.312l0.002-34.1C89.943,6.421,96.432,0,104.407,0
				c7.976,0.001,14.465,6.422,14.465,14.313v34.101C118.872,56.305,112.383,62.725,104.406,62.725z M104.407,4
				c-5.77,0-10.464,4.627-10.464,10.314l-0.002,34.099c0.002,5.686,4.695,10.312,10.463,10.312h0.002
				c5.771,0,10.466-4.625,10.466-10.311V14.313C114.872,8.627,110.178,4.001,104.407,4z"/>
		</g>
		<g>
			<path fill="#282D33" d="M104.406,62.725L104.406,62.725L104.406,62.725L104.406,62.725c-7.974,0-14.463-6.42-14.465-14.312
				V29.173h28.931v19.241c0,3.827-1.508,7.424-4.246,10.128C111.896,61.24,108.266,62.725,104.406,62.725z M93.941,33.173v15.24
				c0.002,5.686,4.695,10.312,10.463,10.312h0.002c2.8,0,5.432-1.076,7.409-3.029c1.971-1.947,3.057-4.533,3.057-7.282V33.173
				H93.941z"/>
		</g>
	</g>
	<g>
		<path fill="#282D33" d="M75.939,128c-0.001,0-0.002,0-0.003,0l-60.881-0.001c-3.268,0-5.927-2.638-5.927-5.879V57.226
			c0-12.263,6.554-23.576,17.185-29.809v-4.033h4v6.393l-1.048,0.567c-9.954,5.39-16.137,15.69-16.137,26.881v64.894
			c0,1.036,0.865,1.879,1.927,1.879L75.938,124h0.001c0.52,0,1.006-0.198,1.371-0.56c0.358-0.354,0.557-0.824,0.557-1.321V57.226
			c0-11.191-6.184-21.492-16.136-26.881l-1.048-0.567v-6.393h4v4.033c10.63,6.232,17.184,17.545,17.184,29.808v64.893
			c0,1.575-0.62,3.055-1.746,4.167C79.002,127.392,77.517,128,75.939,128z"/>
	</g>
	<g>
		<path fill="#282D33" d="M68.646,25.059l-46.299-0.001V3.756h46.299V25.059z M26.347,21.058l38.299,0.001V7.756H26.347V21.058z"/>
	</g>
	<g>
		<path fill="#282D33" d="M45.497,107.542c-14.223,0-25.794-11.441-25.794-25.505c0-14.062,11.571-25.502,25.794-25.503
			c0,0,0.001,0,0.002,0c6.884,0,13.357,2.649,18.228,7.46c4.877,4.818,7.563,11.225,7.563,18.042
			C71.29,96.101,59.719,107.542,45.497,107.542z M45.499,60.534c-0.001,0-0.001,0-0.002,0c-12.017,0.001-21.794,9.647-21.794,21.503
			c0,11.857,9.777,21.505,21.794,21.505c12.017,0,21.793-9.647,21.793-21.506c0-5.738-2.264-11.136-6.375-15.195
			C56.799,62.774,51.324,60.534,45.499,60.534z"/>
	</g>
	<g>
		<g>
			<rect x="32.095" y="6.138" fill="#282D33" width="4" height="10.447"/>
		</g>
		<g>
			<rect x="43.497" y="6.138" fill="#282D33" width="4" height="10.447"/>
		</g>
		<g>
			<rect x="54.898" y="6.138" fill="#282D33" width="4" height="10.447"/>
		</g>
	</g>
	<g>
		<g>
			<g>
				<rect x="43.495" y="70.499" fill="#282D33" width="4" height="23.078"/>
			</g>
			<g>
				<rect x="33.815" y="80.037" fill="#282D33" width="23.363" height="4"/>
			</g>
		</g>
	</g>
</g>
</svg>
